<svg xmlns="http://www.w3.org/2000/svg" width="100" height="100" viewBox="0 0 100 100">
  <g id="Group_318" data-name="Group 318" transform="translate(-959 -778)">
    <circle id="Ellipse_4" data-name="Ellipse 4" cx="50" cy="50" r="50" transform="translate(959 778)" fill="#e8e5fc"/>
    <path id="Path_286" data-name="Path 286" d="M44.418,29.874a4.465,4.465,0,0,1-1.584-.285v8.994a1.588,1.588,0,0,1-1.584,1.584H12.75a1.588,1.588,0,0,1-1.584-1.584V16.417H23.105a9.947,9.947,0,0,1-.064-1.187,11.294,11.294,0,0,1,2.2-6.728H12.75A4.764,4.764,0,0,0,8,13.251V38.585a4.764,4.764,0,0,0,4.75,4.75h28.5A4.764,4.764,0,0,0,46,38.585v-9A4.443,4.443,0,0,1,44.418,29.874Z" transform="translate(982 801.689)" fill="#6c55f9"/>
    <path id="Path_287" data-name="Path 287" d="M35,24.917,30.867,20.8a8.311,8.311,0,1,0-2.233,2.232l4.116,4.132a1.606,1.606,0,0,0,2.247,0,1.6,1.6,0,0,0,0-2.249Zm-11.02-3.627a5.147,5.147,0,1,1,5.147-5.147A5.157,5.157,0,0,1,23.979,21.291Z" transform="translate(992.542 800.772)" fill="#6c55f9"/>
    <g id="Group_313" data-name="Group 313" transform="translate(997.127 827.604)">
    </g>
  </g>
</svg>
